<?xml version="1.0" encoding="UTF-8" standalone="no"?>
<!-- Generator: Adobe Illustrator 16.0.0, SVG Export Plug-In . SVG Version: 6.00 Build 0)  -->

<svg
   xmlns:dc="http://purl.org/dc/elements/1.1/"
   xmlns:cc="http://creativecommons.org/ns#"
   xmlns:rdf="http://www.w3.org/1999/02/22-rdf-syntax-ns#"
   xmlns:svg="http://www.w3.org/2000/svg"
   xmlns="http://www.w3.org/2000/svg"
   xmlns:sodipodi="http://sodipodi.sourceforge.net/DTD/sodipodi-0.dtd"
   xmlns:inkscape="http://www.inkscape.org/namespaces/inkscape"
   version="1.1"
   id="Layer_1"
   x="0px"
   y="0px"
   width="135"
   height="35"
   viewBox="0 0 135 35"
   enable-background="new 0 0 792 612"
   xml:space="preserve"
   inkscape:version="0.48.4 r9939"
   sodipodi:docname="logo2-big.svg"><metadata
     id="metadata3093"><rdf:RDF><cc:Work
         rdf:about=""><dc:format>image/svg+xml</dc:format><dc:type
           rdf:resource="http://purl.org/dc/dcmitype/StillImage" /></cc:Work></rdf:RDF></metadata><defs
     id="defs3091" /><sodipodi:namedview
     pagecolor="#ffffff"
     bordercolor="#666666"
     borderopacity="1"
     objecttolerance="10"
     gridtolerance="10"
     guidetolerance="10"
     inkscape:pageopacity="0"
     inkscape:pageshadow="2"
     inkscape:window-width="1855"
     inkscape:window-height="1056"
     id="namedview3089"
     showgrid="false"
     fit-margin-top="0"
     fit-margin-left="0"
     fit-margin-right="0"
     fit-margin-bottom="0"
     inkscape:zoom="1"
     inkscape:cx="148.1176"
     inkscape:cy="52.362059"
     inkscape:window-x="65"
     inkscape:window-y="24"
     inkscape:window-maximized="1"
     inkscape:current-layer="g3145" /><text
     stroke-miterlimit="10"
     font-size="22.5"
     id="text3087"
     style="font-size:22.5px;fill:none;stroke:#c41230;stroke-linecap:round;stroke-linejoin:round;stroke-miterlimit:10;font-family:SFUFuturaLight"
     x="453.62976"
     y="-23.589895" />
<g
     id="g3167"
     transform="translate(178.44147,-95.124508)"><g
       id="g3145"><g
         id="g3065"
         transform="matrix(0.49978331,0,0,0.49469266,-243.37629,-56.252925)"><rect
           style="fill:#c41230"
           id="rect3079"
           height="70.750999"
           width="1.895"
           y="306.00299"
           x="283.267" /><g
           id="g3115"><path
             d="m 400.043,321.591 c 0,0.89 -0.316,1.644 -0.942,2.272 -0.632,0.629 -1.39,0.941 -2.274,0.941 -0.884,0 -1.642,-0.313 -2.271,-0.941 -0.629,-0.629 -0.941,-1.383 -0.941,-2.272 0,-0.886 0.313,-1.642 0.941,-2.271 0.629,-0.625 1.387,-0.938 2.271,-0.938 0.886,0 1.644,0.313 2.274,0.938 0.626,0.629 0.942,1.385 0.942,2.271 m -0.434,0 c 0,-0.772 -0.271,-1.433 -0.813,-1.978 -0.545,-0.547 -1.202,-0.816 -1.972,-0.816 -0.768,0 -1.425,0.27 -1.966,0.816 -0.544,0.545 -0.819,1.205 -0.819,1.978 0,0.774 0.275,1.437 0.819,1.979 0.541,0.548 1.198,0.822 1.966,0.822 0.77,0 1.427,-0.274 1.972,-0.822 0.542,-0.543 0.813,-1.205 0.813,-1.979 m -0.938,1.636 h -0.843 l -1.05,-1.319 h -0.454 v 1.319 h -0.617 v -3.398 h 1.036 c 0.233,0 0.415,0.006 0.55,0.023 0.138,0.018 0.272,0.066 0.412,0.144 0.148,0.088 0.258,0.188 0.325,0.304 0.066,0.123 0.1,0.274 0.1,0.46 0,0.251 -0.066,0.453 -0.205,0.613 -0.138,0.155 -0.314,0.278 -0.535,0.369 l 1.281,1.485 z m -1.214,-2.428 c 0,-0.092 -0.015,-0.174 -0.05,-0.238 -0.026,-0.068 -0.079,-0.125 -0.155,-0.172 -0.062,-0.037 -0.129,-0.066 -0.205,-0.082 -0.076,-0.012 -0.175,-0.021 -0.298,-0.021 h -0.424 v 1.151 h 0.363 c 0.116,0 0.228,-0.01 0.333,-0.033 0.104,-0.023 0.188,-0.064 0.252,-0.121 0.062,-0.059 0.11,-0.123 0.141,-0.198 0.028,-0.073 0.043,-0.17 0.043,-0.286"
             id="path3067"
             inkscape:connector-curvature="0"
             style="fill:#c41230" /><path
             d="m 129.926,317.879 h 9.989 v 26.396 c 0,0 0.534,8.738 8.382,8.738 7.848,0 8.383,-8.918 8.383,-8.918 v -26.217 h 9.99 v 26.574 c 0,0 0.177,17.482 -18.37,17.658 -18.55,0.178 -18.374,-17.838 -18.374,-17.838 v -26.393 z"
             id="path3069"
             inkscape:connector-curvature="0"
             style="fill:#c41230" /><rect
             x="159.42"
             y="343.73801"
             width="7.25"
             height="17.122999"
             id="rect3071"
             style="fill:#c41230" /><path
             d="m 170.382,317.879 h 9.809 v 4.637 c 0,0 2.14,-5.707 10.881,-5.707 8.737,0 11.058,6.6 11.058,6.6 0,0 3.21,-6.6 12.307,-6.6 9.097,0 13.732,5.348 14.446,12.484 0.714,7.133 0,31.411 0,31.411 h -9.632 l 0.001,-25.349 c 0,0 0.535,-9.629 -7.314,-9.629 -7.847,0 -6.956,11.057 -6.956,11.057 l 0.178,24.078 -9.987,-0.157 -0.18,-24.278 c 0,0 0.717,-10.699 -8.205,-10.699 -7.491,0.535 -6.063,11.235 -6.063,11.235 l -0.178,23.742 -10.166,0.157 0.001,-42.982 0,0 z"
             id="path3073"
             inkscape:connector-curvature="0"
             style="fill:#c41230" /><path
             d="m 265.027,322.872 v -4.993 h 9.811 v 42.982 h -9.811 v -4.457 c 0,0 -6.417,5.713 -13.019,5.709 -6.599,-0.002 -20.69,-2.857 -20.69,-23.367 0,-20.514 18.014,-22.116 20.333,-21.938 2.32,0.176 8.919,1.247 13.376,6.064 m 0.716,16.497 c 0,-7.438 -5.509,-13.467 -12.307,-13.467 -6.797,0 -12.307,6.027 -12.307,13.467 0,7.438 5.509,13.467 12.307,13.467 6.797,0 12.307,-6.029 12.307,-13.467"
             id="path3075"
             inkscape:connector-curvature="0"
             style="fill:#c41230" /><path
             d="m 306.975,316.939 0.084,27.652 c 0,0 0.393,3.616 4.269,3.659 3.829,-0.351 4.048,-3.787 4.048,-3.787 0,0 0.088,-8.057 0.088,-10.624 0,-2.568 0.957,-4.747 0.957,-4.747 0,0 0.567,-2.655 3.004,-5.396 5.876,-7.271 13.756,-6.707 13.756,-6.707 0,0 5.832,-0.609 11.795,4.398 5.966,5.004 6.142,12.536 6.142,12.536 v 10.494 c 0,0 0.348,3.832 4.221,3.832 4.048,0 4.092,-4.397 4.092,-4.397 l 0.044,-6.054 c 0,0 -0.128,-3.551 0.218,-5.747 1.263,-7.443 5.92,-10.928 8.054,-12.275 2.134,-1.349 8.663,-4.527 15.89,-1.699 6.923,3.048 9.188,7.447 10.492,10.755 1.305,3.308 1.003,7.444 1.003,7.444 v 5.748 19.94 H 381.506 V 348.206 334.23 c 0,0 -0.806,-3.526 -4.266,-3.611 -3.484,0.217 -4.136,3.785 -4.136,3.785 0,0 0.042,6.88 0.042,10.363 -0.001,3.482 -1.87,8.358 -4.963,11.668 -3.089,3.308 -8.663,5.483 -12.493,5.529 -4.224,-0.04 -7.75,-0.611 -12.974,-5.27 -5.224,-4.396 -5.31,-12.541 -5.31,-12.541 v -0.522 -9.577 c 0,0 -0.916,-3.472 -4.18,-3.438 -3.568,0.176 -4.137,3.7 -4.137,3.7 0,0 0.044,6.055 0,10.015 -0.044,3.961 -1.436,9.058 -5.878,12.93 -4.44,3.875 -9.098,4.659 -11.535,4.703 -2.438,0.043 -7.88,-0.308 -13.148,-5.44 -5.269,-5.14 -5.136,-12.019 -5.136,-12.019 V 316.99 l 13.583,-0.051 z m -11.378,2.306 v 25.342 c 0,0 0,5.368 3.474,9.491 3.565,3.736 7,5.188 11.813,5.418 1.649,-0.029 6.651,-0.482 9.934,-3.102 4.653,-3.605 6.081,-9.605 6.109,-12.482 0.029,-2.879 0,-10.621 0,-10.621 0,0 1.452,-4.967 6.267,-5.043 5.369,0.076 6.451,4.967 6.451,4.967 v 6.912 c 0,0 0.19,6.26 0.636,7.78 0.447,1.524 1.355,5.215 5.672,8.532 2.951,2.074 5.019,3.004 8.807,3.215 4.927,0.137 10.036,-2.721 12.127,-5.122 2.091,-2.404 4.048,-7.022 4.048,-9.554 v -10.465 c 0,0 0.308,-5.886 6.268,-6.267 5.117,0 6.571,5.271 6.571,5.271 l 0.229,10.394 -0.229,15.659 h 9.091 v -22.461 -4.278 c 0,0 -0.221,-3.103 -2.445,-6.494 -5.128,-6.188 -9.605,-7.118 -12.607,-7.128 -3.917,-0.105 -7.12,1.396 -8.563,2.378 -1.964,1.397 -5.27,4.414 -6.331,7.392 -0.851,2.549 -1.149,4.848 -1.149,4.848 0,0 0.059,10.475 0.053,11.229 -0.123,0.854 -1.36,5.648 -6.662,5.644 -1.635,-0.013 -5.723,-0.896 -6.225,-5.644 l -0.127,-11.594 c 0,0 -0.636,-6.131 -6.065,-11.021 -3.984,-3.489 -9.893,-3.193 -9.893,-3.193 0,0 -4.8,0.128 -7.602,2.205 -2.301,1.595 -4.279,3.656 -5.118,4.888 -0.835,1.231 -2.675,5.502 -2.555,8.479 0,4.484 0.304,7.927 -0.048,10.73 -0.639,3.732 -4.032,5.135 -5.969,5.201 -6.25,-0.117 -6.712,-6.1 -6.712,-6.1 l -0.057,-25.44 -9.193,0.034 z"
             id="path3077"
             inkscape:connector-curvature="0"
             style="fill:#c41230" /><path
             style="fill:#c41230"
             inkscape:connector-curvature="0"
             id="path3097"
             d="m 400.043,321.591 c 0,0.89 -0.316,1.644 -0.942,2.272 -0.632,0.629 -1.39,0.941 -2.274,0.941 -0.884,0 -1.642,-0.313 -2.271,-0.941 -0.629,-0.629 -0.941,-1.383 -0.941,-2.272 0,-0.886 0.313,-1.642 0.941,-2.271 0.629,-0.625 1.387,-0.938 2.271,-0.938 0.886,0 1.644,0.313 2.274,0.938 0.626,0.629 0.942,1.385 0.942,2.271 m -0.434,0 c 0,-0.772 -0.271,-1.433 -0.813,-1.978 -0.545,-0.547 -1.202,-0.816 -1.972,-0.816 -0.768,0 -1.425,0.27 -1.966,0.816 -0.544,0.545 -0.819,1.205 -0.819,1.978 0,0.774 0.275,1.437 0.819,1.979 0.541,0.548 1.198,0.822 1.966,0.822 0.77,0 1.427,-0.274 1.972,-0.822 0.542,-0.543 0.813,-1.205 0.813,-1.979 m -0.938,1.636 h -0.843 l -1.05,-1.319 h -0.454 v 1.319 h -0.617 v -3.398 h 1.036 c 0.233,0 0.415,0.006 0.55,0.023 0.138,0.018 0.272,0.066 0.412,0.144 0.148,0.088 0.258,0.188 0.325,0.304 0.066,0.123 0.1,0.274 0.1,0.46 0,0.251 -0.066,0.453 -0.205,0.613 -0.138,0.155 -0.314,0.278 -0.535,0.369 l 1.281,1.485 z m -1.214,-2.428 c 0,-0.092 -0.015,-0.174 -0.05,-0.238 -0.026,-0.068 -0.079,-0.125 -0.155,-0.172 -0.062,-0.037 -0.129,-0.066 -0.205,-0.082 -0.076,-0.012 -0.175,-0.021 -0.298,-0.021 h -0.424 v 1.151 h 0.363 c 0.116,0 0.228,-0.01 0.333,-0.033 0.104,-0.023 0.188,-0.064 0.252,-0.121 0.062,-0.059 0.11,-0.123 0.141,-0.198 0.028,-0.073 0.043,-0.17 0.043,-0.286" /><path
             style="fill:#c41230"
             inkscape:connector-curvature="0"
             id="path3099"
             d="m 129.926,317.879 h 9.989 v 26.396 c 0,0 0.534,8.738 8.382,8.738 7.848,0 8.383,-8.918 8.383,-8.918 v -26.217 h 9.99 v 26.574 c 0,0 0.177,17.482 -18.37,17.658 -18.55,0.178 -18.374,-17.838 -18.374,-17.838 v -26.393 z" /><rect
             style="fill:#c41230"
             id="rect3101"
             height="17.122999"
             width="7.25"
             y="343.73801"
             x="159.42" /><path
             style="fill:#c41230"
             inkscape:connector-curvature="0"
             id="path3103"
             d="m 170.382,317.879 h 9.809 v 4.637 c 0,0 2.14,-5.707 10.881,-5.707 8.737,0 11.058,6.6 11.058,6.6 0,0 3.21,-6.6 12.307,-6.6 9.097,0 13.732,5.348 14.446,12.484 0.714,7.133 0,31.411 0,31.411 h -9.632 l 0.001,-25.349 c 0,0 0.535,-9.629 -7.314,-9.629 -7.847,0 -6.956,11.057 -6.956,11.057 l 0.178,24.078 -9.987,-0.157 -0.18,-24.278 c 0,0 0.717,-10.699 -8.205,-10.699 -7.491,0.535 -6.063,11.235 -6.063,11.235 l -0.178,23.742 -10.166,0.157 0.001,-42.982 0,0 z" /><path
             style="fill:#c41230"
             inkscape:connector-curvature="0"
             id="path3105"
             d="m 265.027,322.872 v -4.993 h 9.811 v 42.982 h -9.811 v -4.457 c 0,0 -6.417,5.713 -13.019,5.709 -6.599,-0.002 -20.69,-2.857 -20.69,-23.367 0,-20.514 18.014,-22.116 20.333,-21.938 2.32,0.176 8.919,1.247 13.376,6.064 m 0.716,16.497 c 0,-7.438 -5.509,-13.467 -12.307,-13.467 -6.797,0 -12.307,6.027 -12.307,13.467 0,7.438 5.509,13.467 12.307,13.467 6.797,0 12.307,-6.029 12.307,-13.467" /><path
             style="fill:#c41230"
             inkscape:connector-curvature="0"
             id="path3107"
             d="m 306.975,316.939 0.084,27.652 c 0,0 0.393,3.616 4.269,3.659 3.829,-0.351 4.048,-3.787 4.048,-3.787 0,0 0.088,-8.057 0.088,-10.624 0,-2.568 0.957,-4.747 0.957,-4.747 0,0 0.567,-2.655 3.004,-5.396 5.876,-7.271 13.756,-6.707 13.756,-6.707 0,0 5.832,-0.609 11.795,4.398 5.966,5.004 6.142,12.536 6.142,12.536 v 10.494 c 0,0 0.348,3.832 4.221,3.832 4.048,0 4.092,-4.397 4.092,-4.397 l 0.044,-6.054 c 0,0 -0.128,-3.551 0.218,-5.747 1.263,-7.443 5.92,-10.928 8.054,-12.275 2.134,-1.349 8.663,-4.527 15.89,-1.699 6.923,3.048 9.188,7.447 10.492,10.755 1.305,3.308 1.003,7.444 1.003,7.444 v 5.748 19.94 H 381.506 V 348.206 334.23 c 0,0 -0.806,-3.526 -4.266,-3.611 -3.484,0.217 -4.136,3.785 -4.136,3.785 0,0 0.042,6.88 0.042,10.363 -0.001,3.482 -1.87,8.358 -4.963,11.668 -3.089,3.308 -8.663,5.483 -12.493,5.529 -4.224,-0.04 -7.75,-0.611 -12.974,-5.27 -5.224,-4.396 -5.31,-12.541 -5.31,-12.541 v -0.522 -9.577 c 0,0 -0.916,-3.472 -4.18,-3.438 -3.568,0.176 -4.137,3.7 -4.137,3.7 0,0 0.044,6.055 0,10.015 -0.044,3.961 -1.436,9.058 -5.878,12.93 -4.44,3.875 -9.098,4.659 -11.535,4.703 -2.438,0.043 -7.88,-0.308 -13.148,-5.44 -5.269,-5.14 -5.136,-12.019 -5.136,-12.019 V 316.99 l 13.583,-0.051 z m -11.378,2.306 v 25.342 c 0,0 0,5.368 3.474,9.491 3.565,3.736 7,5.188 11.813,5.418 1.649,-0.029 6.651,-0.482 9.934,-3.102 4.653,-3.605 6.081,-9.605 6.109,-12.482 0.029,-2.879 0,-10.621 0,-10.621 0,0 1.452,-4.967 6.267,-5.043 5.369,0.076 6.451,4.967 6.451,4.967 v 6.912 c 0,0 0.19,6.26 0.636,7.78 0.447,1.524 1.355,5.215 5.672,8.532 2.951,2.074 5.019,3.004 8.807,3.215 4.927,0.137 10.036,-2.721 12.127,-5.122 2.091,-2.404 4.048,-7.022 4.048,-9.554 v -10.465 c 0,0 0.308,-5.886 6.268,-6.267 5.117,0 6.571,5.271 6.571,5.271 l 0.229,10.394 -0.229,15.659 h 9.091 v -22.461 -4.278 c 0,0 -0.221,-3.103 -2.445,-6.494 -5.128,-6.188 -9.605,-7.118 -12.607,-7.128 -3.917,-0.105 -7.12,1.396 -8.563,2.378 -1.964,1.397 -5.27,4.414 -6.331,7.392 -0.851,2.549 -1.149,4.848 -1.149,4.848 0,0 0.059,10.475 0.053,11.229 -0.123,0.854 -1.36,5.648 -6.662,5.644 -1.635,-0.013 -5.723,-0.896 -6.225,-5.644 l -0.127,-11.594 c 0,0 -0.636,-6.131 -6.065,-11.021 -3.984,-3.489 -9.893,-3.193 -9.893,-3.193 0,0 -4.8,0.128 -7.602,2.205 -2.301,1.595 -4.279,3.656 -5.118,4.888 -0.835,1.231 -2.675,5.502 -2.555,8.479 0,4.484 0.304,7.927 -0.048,10.73 -0.639,3.732 -4.032,5.135 -5.969,5.201 -6.25,-0.117 -6.712,-6.1 -6.712,-6.1 l -0.057,-25.44 -9.193,0.034 z" /></g><rect
           x="283.267"
           y="306.00299"
           width="1.895"
           height="70.750999"
           id="rect3109"
           style="fill:#c41230" /></g></g></g></svg>